<?xml version="1.0" encoding="UTF-8"?>
<svg width="30px" height="28px" viewBox="0 0 30 28" version="1.1" xmlns="http://www.w3.org/2000/svg" xmlns:xlink="http://www.w3.org/1999/xlink">
    <!-- Generator: Sketch 53.2 (72643) - https://sketchapp.com -->
    <title>DevOps@3x</title>
    <desc>Created with Sketch.</desc>
    <g id="Page-1" stroke="none" stroke-width="1" fill="none" fill-rule="evenodd">
        <g id="欢迎-pe" transform="translate(-74.000000, -396.000000)" fill="#FFFFFF" fill-rule="nonzero">
            <g id="方向" transform="translate(74.000000, 344.000000)">
                <g id="DevOps" transform="translate(0.000000, 52.000000)">
                    <path d="M27.5235861,14.5026989 L26.4787609,13.4578738 L24.7012439,15.2353908 C23.9159821,14.6275522 22.96644,14.2201361 21.9314713,14.0887116 L21.9314713,11.5785027 L20.4529453,11.5785027 L20.4529453,14.0887116 C19.4179771,14.2201361 18.4684346,14.6308379 17.683173,15.2353908 L15.905656,13.4578738 L14.8608308,14.5026989 L16.6383478,16.2802159 C16.0305093,17.0654776 15.6230932,18.0150199 15.4916686,19.0499881 L12.9781742,19.0499881 L12.9781742,20.5285145 L15.488383,20.5285145 C15.6198076,21.5634827 16.0305093,22.5130253 16.6350622,23.2982867 L14.8575452,25.0758037 L15.9023704,26.1206288 L17.6798874,24.3431118 C18.465149,24.9509503 19.4146913,25.3583666 20.4496595,25.4897911 L20.4496595,28 L21.928186,28 L21.928186,25.4897911 C22.9631542,25.3583666 23.9126967,24.9476649 24.6979581,24.3431118 L26.4754751,26.1206288 L27.5203003,25.0758037 L25.7427833,23.2982867 C26.3506217,22.5130253 26.7580381,21.5634827 26.8894626,20.5285145 L29.4062426,20.5285145 L29.4062426,19.0499881 L26.8960337,19.0499881 C26.7613234,18.0150199 26.3539075,17.0687632 25.7460691,16.2802159 L27.5235861,14.5026989 Z M25.4273647,20.3412347 C25.3320816,21.0870688 25.0363764,21.7967615 24.5763905,22.394743 L24.2379723,22.8350155 L23.7977003,23.1734333 C23.1997183,23.6367049 22.4900256,23.9291248 21.7441915,24.0244074 L21.1922083,24.0966908 L20.6402252,24.0244074 C19.8943911,23.9291248 19.1846984,23.6334196 18.5867167,23.1734333 L18.1464445,22.8350155 L17.8080263,22.394743 C17.3447547,21.7967615 17.0523351,21.0870688 16.9570523,20.3412347 L16.8847688,19.7892515 L16.9570523,19.2372684 C17.0523351,18.4947196 17.3480404,17.7817416 17.8080263,17.1837597 L18.1464445,16.7434875 L18.5867167,16.4050692 C19.1846984,15.9417977 19.8943911,15.6493781 20.6402252,15.5540953 L21.1922083,15.4818118 L21.7441915,15.5540953 C22.4900256,15.6493781 23.1997183,15.9450833 23.7977003,16.4050692 L24.2379723,16.7434875 L24.5763905,17.1837597 C25.0396622,17.7817416 25.3320816,18.4914338 25.4273647,19.2372684 L25.4996481,19.7892515 L25.4273647,20.3412347 L25.4273647,20.3412347 Z M9.21286081,10.691387 L5.36540718,15.2781037 L9.21286081,19.8648203 L8.07932412,20.8143628 L3.43346631,15.2781037 L8.08260973,9.74184465 L9.21286081,10.691387 Z M29.4390987,0 L29.4390987,12.1764844 L27.9605727,12.1764844 L27.9605727,1.47852619 L1.47852619,1.47852619 L1.47852619,26.4491901 L11.9300634,26.4491901 L11.9300634,27.9277166 L0,27.9277166 L0,0 L29.4390987,0 Z M21.8197607,4.56371743 L20.3412347,4.56371743 L20.3412347,3.08519125 L21.8197607,3.08519125 L21.8197607,4.56371743 Z M25.4339358,4.56371743 L23.9554093,4.56371743 L23.9554093,3.08519125 L25.4339358,3.08519125 L25.4339358,4.56371743 Z" id="形状"></path>
                </g>
            </g>
        </g>
    </g>
</svg>