<?xml version="1.0" encoding="UTF-8"?>
<svg width="28px" height="32px" viewBox="0 0 28 32" version="1.1" xmlns="http://www.w3.org/2000/svg" xmlns:xlink="http://www.w3.org/1999/xlink">
    <!-- Generator: Sketch 53.2 (72643) - https://sketchapp.com -->
    <title>产品@3x</title>
    <desc>Created with Sketch.</desc>
    <g id="Page-1" stroke="none" stroke-width="1" fill="none" fill-rule="evenodd">
        <g id="欢迎-pe" transform="translate(-75.000000, -344.000000)" fill="#FFFFFF" fill-rule="nonzero">
            <g id="方向" transform="translate(74.000000, 344.000000)">
                <g id="产品" transform="translate(1.000000, 0.000000)">
                    <path d="M10.762277,20.8720591 L5.38331404,17.7447487 C4.86524157,17.4432864 4.20603138,17.6279318 3.91092684,18.1571656 C3.6158223,18.6863994 3.79657344,19.3598117 4.31464586,19.6612739 L9.69360891,22.7885844 C10.2116814,23.0900468 10.8708916,22.9054015 11.1659961,22.3761674 C11.4611007,21.8469338 11.2803495,21.1735215 10.762277,20.8720591 L10.762277,20.8720591 Z M23.1501069,11.5942707 C23.6644642,11.3032656 23.8445354,10.6521356 23.5523069,10.1399312 C23.2600785,9.62772679 22.6062112,9.44840935 22.0918539,9.73941447 L13.7308006,14.4784175 L5.37081845,9.74048108 C4.85675671,9.44888689 4.20264985,9.62748801 3.90982989,10.1393978 C3.61700993,10.6513077 3.79636177,11.3026764 4.31042351,11.5942707 L12.7903696,16.3994043 L12.7903696,26.6667108 C12.7903696,27.0477786 12.9945212,27.3998991 13.3259226,27.590433 C13.6573239,27.7809668 14.0656272,27.7809668 14.3970286,27.590433 C14.7284299,27.3998991 14.9325815,27.0477786 14.9325815,26.6667108 L14.9325815,16.3567394 C14.9325815,16.3236741 14.916515,16.2948753 14.9133017,16.26181 L23.1501069,11.5942707 Z M26.3943064,6.68226925 L15.6218461,0.436770078 C14.617459,-0.145590026 13.373926,-0.145590026 12.3695388,0.436770078 L1.6046171,6.68226925 C0.609426949,7.26150269 -0.00124092965,8.3198189 1.89341785e-06,9.46314305 L1.89341785e-06,22.7189615 C1.89341785e-06,23.8784591 0.626771064,24.948354 1.64015556,25.5190362 L12.409385,31.5831972 C13.3951956,32.1389343 14.6037278,32.1389343 15.5895384,31.5831972 L26.3587679,25.5190362 C27.3743764,24.9459034 28.0010562,23.8767359 27.9999987,22.7189615 L27.9999987,9.46314305 C28.0010169,8.31960087 27.3899104,7.26123458 26.3943064,6.68226925 Z M25.8461536,23.2574602 C25.8461536,23.643921 25.6372305,24.0015578 25.2990767,24.1915855 L14.5298462,30.2607305 C14.2014494,30.4464228 13.7985508,30.4464228 13.4701539,30.2607305 L2.70092349,24.1915855 C2.36238729,24.0003839 2.15349393,23.6437018 2.15384657,23.2574602 L2.15384657,9.99074631 C2.15384657,9.60855564 2.35738503,9.2551894 2.68907734,9.06302647 L13.4540001,2.81239407 C13.7885325,2.61809087 14.2028523,2.61809087 14.5373847,2.81239407 L25.3109228,9.06409404 C25.6426151,9.2551894 25.8461536,9.60855564 25.8461536,9.99074631 L25.8461536,23.2574602 L25.8461536,23.2574602 Z M22.4357176,14.0652981 L17.4104357,17.0027781 C16.7169963,17.4080949 16.153846,18.3008584 16.153846,18.9962967 L16.153846,24.8765898 C16.153846,25.5720282 16.7159196,25.8066852 17.4104357,25.4013684 L22.4357176,22.4638884 C23.1291569,22.0585716 23.6923075,21.1658079 23.6923075,20.47037 L23.6923075,14.5900767 C23.6923075,13.8946384 23.1302339,13.6599814 22.4357176,14.0652981 L22.4357176,14.0652981 Z" id="形状"></path>
                </g>
            </g>
        </g>
    </g>
</svg>