<?xml version="1.0" encoding="UTF-8"?>
<svg width="28px" height="28px" viewBox="0 0 28 28" version="1.1" xmlns="http://www.w3.org/2000/svg" xmlns:xlink="http://www.w3.org/1999/xlink">
    <!-- Generator: Sketch 53.2 (72643) - https://sketchapp.com -->
    <title>前端开发@3x</title>
    <desc>Created with Sketch.</desc>
    <g id="Page-1" stroke="none" stroke-width="1" fill="none" fill-rule="evenodd">
        <g id="欢迎-pe" transform="translate(-208.000000, -444.000000)" fill="#FFFFFF" fill-rule="nonzero">
            <g id="方向" transform="translate(74.000000, 344.000000)">
                <g id="前端开发" transform="translate(134.000000, 100.000000)">
                    <path d="M7.01529043,15.2604478 C7.39535406,15.2604478 7.77541769,15.3236903 8.0920867,15.4504796 C8.34551313,15.5772688 8.72557676,15.8305432 9.04224577,16.1473642 L9.86576764,15.2604478 C9.10564038,14.4370779 8.15548131,14.0570143 7.07868505,14.0570143 C6.00188878,14.0570143 5.05172971,14.4370779 4.29160246,15.1336585 C3.59486982,15.8305432 3.21480619,16.7174597 3.21480619,17.7941039 C3.21480619,18.8710522 3.59486982,19.7579687 4.29160246,20.4545493 C4.9883351,21.151434 5.87525158,21.5314976 6.95204785,21.5314976 C8.02884411,21.5314976 8.91576059,21.0881914 9.73913043,20.2645175 L8.97900318,19.3143584 C8.66233417,19.6311795 8.34551313,19.8212113 8.02884411,19.9480005 C7.77541769,20.0744857 7.39535406,20.1380323 6.95204785,20.1380323 C6.31855779,20.1380323 5.74846235,19.8844539 5.24176153,19.4411477 C4.79830329,19.061084 4.54502889,18.4909886 4.54502889,17.7308613 C4.54502889,16.9707341 4.79845531,16.4006386 5.24176153,15.9573324 C5.74831033,15.5137222 6.31840577,15.2604478 7.01529043,15.2604478 L7.01529043,15.2604478 Z M14.9964746,17.0975233 C14.2995899,16.9074915 13.7930411,16.7807023 13.5396147,16.5906705 C13.3495829,16.4638812 13.2229457,16.2106068 13.2229457,15.9573324 C13.2229457,15.703754 13.2863403,15.4504796 13.5396147,15.3236903 C13.7296465,15.1972052 14.0463155,15.1336585 14.4263791,15.1336585 C14.7432002,15.1336585 15.1232638,15.1972052 15.4397808,15.3236903 C15.7566018,15.4504796 16.0734229,15.5772688 16.3266973,15.7673006 L16.9600353,14.8171415 C16.6435183,14.5635631 16.2634547,14.3102887 15.8198444,14.1834995 C15.3765382,14.0570143 14.933232,13.9934677 14.4896217,13.9934677 C13.7930411,13.9934677 13.159551,14.1834995 12.7160928,14.5635631 C12.2726346,14.9436267 11.9559656,15.4504796 11.9559656,16.0838176 C11.9559656,16.7174597 12.1459974,17.2240085 12.5894556,17.5408295 C12.7794874,17.7308613 13.0329138,17.8576506 13.3495829,17.9841357 C13.6662519,18.110925 14.0463155,18.1741676 14.5531684,18.3641994 C15.0597172,18.4909886 15.4397808,18.6177778 15.6298126,18.744263 C15.8198444,18.8710522 15.9466336,19.1243266 15.9466336,19.3779051 C15.9466336,19.6311795 15.8198444,19.8844539 15.6298126,20.0112431 C15.4397808,20.2012749 15.1232638,20.2645175 14.7432002,20.2645175 C13.9830729,20.2645175 13.2229457,19.9480005 12.526213,19.3143584 L11.7026912,20.2645175 C12.5894556,21.0246448 13.6030093,21.4047084 14.6796535,21.4047084 C15.4397808,21.4047084 16.0734229,21.2146766 16.5167291,20.8346129 C17.0235819,20.4545493 17.2136137,19.9480005 17.2136137,19.3143584 C17.2136137,18.6810204 17.0235819,18.2377142 16.6435183,17.8576506 C16.2634547,17.5408295 15.6933592,17.2875551 14.9964746,17.0975233 L14.9964746,17.0975233 Z M24.2447908,17.8576506 C23.8647272,17.5408295 23.2946318,17.2875551 22.5977471,17.0975233 C21.9008624,16.9074915 21.3943136,16.7807023 21.1407352,16.5906705 C20.9507034,16.4638812 20.8242182,16.2106068 20.8242182,15.9573324 C20.8242182,15.703754 20.9507034,15.4504796 21.1407352,15.3236903 C21.330767,15.1972052 21.647588,15.1336585 21.9644091,15.1336585 C22.2809261,15.1336585 22.6609897,15.1972052 23.0410533,15.3236903 C23.4211169,15.4504796 23.6746954,15.5772688 23.8647272,15.7673006 L24.4980652,14.8171415 C24.1812442,14.5635631 23.8011806,14.3102887 23.3578744,14.1834995 C22.9145681,14.0570143 22.4709579,13.9934677 22.0276517,13.9934677 C21.330767,13.9934677 20.697429,14.1834995 20.2541228,14.5635631 C19.8105125,14.9436267 19.4939955,15.4504796 19.4939955,16.0838176 C19.4939955,16.7174597 19.6840273,17.2240085 20.1273335,17.5408295 C20.3173653,17.7308613 20.5706397,17.8576506 20.8874608,17.9841357 C21.2042818,18.110925 21.5843455,18.1741676 22.0908943,18.3641994 C22.5977471,18.4909886 22.9778107,18.6177778 23.1678425,18.744263 C23.3578744,18.8710522 23.4846636,19.1243266 23.4846636,19.3779051 C23.4846636,19.6311795 23.3578744,19.8844539 23.1678425,20.0112431 C22.9778107,20.2012749 22.6609897,20.2645175 22.2809261,20.2645175 C21.5207988,20.2645175 20.7606716,19.9480005 20.0640909,19.3143584 L19.3039637,20.2645175 C20.1905761,21.0246448 21.2042818,21.4047084 22.2809261,21.4047084 C23.0410533,21.4047084 23.6746954,21.2146766 24.1180016,20.8346129 C24.6248545,20.4545493 24.8148863,19.9480005 24.8148863,19.3143584 C24.8148863,18.6810204 24.6248545,18.2377142 24.2447908,17.8576506 L24.2447908,17.8576506 Z" id="形状"></path>
                    <path d="M25.5687805,0.007126193 L2.46091198,0.007126193 C1.1176151,0.007126193 0.028504772,1.09623652 0.028504772,2.4395334 L0.028504772,25.5474019 C0.028504772,26.8908508 1.1176151,27.9798091 2.46091198,27.9798091 L25.5687805,27.9798091 C26.9122294,27.9798091 28.0011877,26.8908508 28.0011877,25.5474019 L28.0011877,2.4395334 C28.0011877,1.09623652 26.9122294,0.007126193 25.5687805,0.007126193 Z M26.4809332,25.5474019 C26.4809332,26.0504541 26.0718327,26.4595546 25.5687805,26.4595546 L2.46091198,26.4595546 C1.95785977,26.4595546 1.54875928,26.0504541 1.54875928,25.5474019 L1.54875928,2.4395334 C1.54875928,1.93648119 1.95785977,1.5273807 2.46091198,1.5273807 L25.5687805,1.5273807 C26.0718327,1.5273807 26.4809332,1.93648119 26.4809332,2.4395334 L26.4809332,25.5474019 Z" id="形状"></path>
                    <path d="M13.9023474,3.42769883 L4.70480764,3.42769883 C4.38995262,3.42769883 4.1347122,3.68293926 4.1347122,3.99779427 C4.1347122,4.31264929 4.38995262,4.56788971 4.70480764,4.56788971 L13.9023474,4.56788971 C14.2172024,4.56788971 14.4724428,4.31264929 14.4724428,3.99779427 C14.4724428,3.68293926 14.2172024,3.42769883 13.9023474,3.42769883 L13.9023474,3.42769883 Z M18.7831245,3.42769883 L15.6728358,3.42769883 C15.3579808,3.42769883 15.1027404,3.68293926 15.1027404,3.99779427 C15.1027404,4.31264929 15.3579808,4.56788971 15.6728358,4.56788971 L18.7831245,4.56788971 C19.0979795,4.56788971 19.3532199,4.31264929 19.3532199,3.99779427 C19.3532199,3.68293926 19.0979795,3.42769883 18.7831245,3.42769883 L18.7831245,3.42769883 Z M23.0208339,3.42769883 L20.6706725,3.42769883 C20.3558175,3.42769883 20.1005771,3.68293926 20.1005771,3.99779427 C20.1005771,4.31264929 20.3558175,4.56788971 20.6706725,4.56788971 L23.0208339,4.56788971 C23.335689,4.56788971 23.5909294,4.31264929 23.5909294,3.99779427 C23.5909294,3.68293926 23.335689,3.42769883 23.0208339,3.42769883 L23.0208339,3.42769883 Z" id="形状"></path>
                    <polygon id="路径" points="1.09268293 6.35418876 27.2410604 6.35418876 27.2410604 7.72241782 1.09268293 7.72241782"></polygon>
                </g>
            </g>
        </g>
    </g>
</svg>