<?xml version="1.0" encoding="UTF-8"?>
<svg width="32px" height="28px" viewBox="0 0 32 28" version="1.1" xmlns="http://www.w3.org/2000/svg" xmlns:xlink="http://www.w3.org/1999/xlink">
    <!-- Generator: Sketch 53.2 (72643) - https://sketchapp.com -->
    <title>后台@1x@3x</title>
    <desc>Created with Sketch.</desc>
    <g id="Page-1" stroke="none" stroke-width="1" fill="none" fill-rule="evenodd">
        <g id="欢迎-pe" transform="translate(-74.000000, -444.000000)" fill="#FFFAFA" fill-rule="nonzero">
            <g id="方向" transform="translate(74.000000, 344.000000)">
                <g id="后台@1x" transform="translate(-0.000000, 100.000000)">
                    <path d="M28.6366897,0 C30.3866085,0 31.8184613,1.43185313 31.8184613,3.1817716 L31.8184613,20.6818883 C31.8184613,22.4319928 30.4145744,24.1446235 28.6987741,24.4878583 L21.7429137,25.878881 C21.7429137,25.878881 27.7298495,28 23.8638461,28 L7.95461539,28 C4.08917124,28 10.0755479,25.878881 10.0755479,25.878881 L3.12024664,24.4878583 C1.40388724,24.1446235 0,22.4319928 0,20.6818883 L0,3.1817716 C0,1.43185313 1.43166674,0 3.1817716,0 L28.6366897,0 Z M28.6366897,20.5228553 L28.6366897,2.8637063 L3.1817716,2.8637063 L3.1817716,20.5228553 L28.6366897,20.5228553 Z" id="合并形状"></path>
                </g>
            </g>
        </g>
    </g>
</svg>