<?xml version="1.0" encoding="UTF-8"?>
<svg width="21px" height="28px" viewBox="0 0 21 28" version="1.1" xmlns="http://www.w3.org/2000/svg" xmlns:xlink="http://www.w3.org/1999/xlink">
    <!-- Generator: Sketch 53.2 (72643) - https://sketchapp.com -->
    <title>形状@3x</title>
    <desc>Created with Sketch.</desc>
    <g id="Page-1" stroke="none" stroke-width="1" fill="none" fill-rule="evenodd">
        <g id="欢迎-pe" transform="translate(-211.000000, -399.000000)" fill="#FFFFFF" fill-rule="nonzero">
            <g id="方向" transform="translate(74.000000, 344.000000)">
                <path d="M155.454545,62 C155.2,62 155.009091,62.0636363 154.818182,62.1272727 L154.818182,62 L154.754545,62 C154.5,60.0272727 153.163636,58.3090909 151.318182,57.2909091 L152.209091,56.0181818 L152.209091,56.0181818 C152.209091,55.8909091 152.272727,55.7636364 152.272727,55.6363636 C152.272727,55.2545454 152.018182,55 151.636364,55 C151.445455,55 151.254545,55.1272727 151.127273,55.3181818 L151.127273,55.3181818 L150.109091,56.7818182 C149.218182,56.4636363 148.2,56.2727273 147.181818,56.2727273 C146.163636,56.2727273 145.145455,56.4636363 144.254545,56.7818182 L143.236364,55.3181818 L143.236364,55.3181818 C143.109091,55.1272727 142.918182,55 142.727273,55 C142.345455,55 142.090909,55.2545454 142.090909,55.6363636 C142.090909,55.7636364 142.154545,55.8909091 142.218182,55.9545455 L142.218182,55.9545455 L143.109091,57.2272727 C141.2,58.2454545 139.863636,59.9636364 139.672727,61.9363637 L139.545455,61.9363636 L139.545455,62.0636364 C139.354545,62 139.163636,61.9363636 138.909091,61.9363636 C137.827273,61.9363636 137,62.7636363 137,63.8454545 L137,72.7545454 C137,73.8363636 137.827273,74.6636364 138.909091,74.6636364 C139.163636,74.6636364 139.354545,74.6 139.545455,74.5363636 L139.545455,76.6363636 C139.545455,77.3363636 140.118182,77.9090909 140.818182,77.9090909 L142.090909,77.9090909 L142.090909,81.0909091 C142.090909,82.1727273 142.918182,83 144,83 C145.081818,83 145.909091,82.1727273 145.909091,81.0909091 L145.909091,77.9090909 L148.454545,77.9090909 L148.454545,81.0909091 C148.454545,82.1727273 149.281818,83 150.363636,83 C151.445455,83 152.272727,82.1727273 152.272727,81.0909091 L152.272727,77.9090909 L153.545455,77.9090909 C154.245455,77.9090909 154.818182,77.3363636 154.818182,76.6363636 L154.818182,74.6 C155.009091,74.6636363 155.2,74.7272727 155.454545,74.7272727 C156.536364,74.7272727 157.363636,73.9 157.363636,72.8181818 L157.363636,63.9090909 C157.363636,62.8272727 156.536364,62 155.454545,62 Z M139.545455,72.8181818 C139.545455,73.2 139.290909,73.4545454 138.909091,73.4545454 C138.527273,73.4545454 138.272727,73.2 138.272727,72.8181818 L138.272727,63.9090909 C138.272727,63.5272727 138.527273,63.2727273 138.909091,63.2727273 C139.290909,63.2727273 139.545455,63.5272727 139.545455,63.9090909 L139.545455,72.8181818 Z M147.181818,57.5454545 C150.427273,57.5454545 153.1,59.5181818 153.481818,62 L140.881818,62 C141.263636,59.5181818 143.936364,57.5454545 147.181818,57.5454545 Z M144.636364,81.0909091 C144.636364,81.4727272 144.381818,81.7272727 144,81.7272727 C143.618182,81.7272727 143.363636,81.4727272 143.363636,81.0909091 L143.363636,77.9090909 L144.636364,77.9090909 L144.636364,81.0909091 Z M151,81.0909091 C151,81.4727272 150.745455,81.7272727 150.363636,81.7272727 C149.981818,81.7272727 149.727273,81.4727272 149.727273,81.0909091 L149.727273,77.9090909 L151,77.9090909 L151,81.0909091 Z M153.545455,76.6363636 L140.818182,76.6363636 L140.818182,63.2727273 L153.545455,63.2727273 L153.545455,76.6363636 Z M156.090909,72.8181818 C156.090909,73.2 155.836364,73.4545454 155.454545,73.4545454 C155.072727,73.4545454 154.818182,73.2 154.818182,72.8181818 L154.818182,63.9090909 C154.818182,63.5272727 155.072727,63.2727273 155.454545,63.2727273 C155.836364,63.2727273 156.090909,63.5272727 156.090909,63.9090909 L156.090909,72.8181818 Z M149.090909,59.4545454 C148.709091,59.4545454 148.454545,59.7090909 148.454545,60.0909091 C148.454545,60.4727273 148.709091,60.7272727 149.090909,60.7272727 C149.472727,60.7272727 149.727273,60.4727273 149.727273,60.0909091 C149.727273,59.7090909 149.472727,59.4545454 149.090909,59.4545454 Z M145.272727,59.4545454 C144.890909,59.4545454 144.636364,59.7090909 144.636364,60.0909091 C144.636364,60.4727273 144.890909,60.7272727 145.272727,60.7272727 C145.654545,60.7272727 145.909091,60.4727273 145.909091,60.0909091 C145.909091,59.7090909 145.654545,59.4545454 145.272727,59.4545454 Z" id="形状"></path>
            </g>
        </g>
    </g>
</svg>