<?xml version="1.0" encoding="UTF-8"?>
<svg width="28px" height="28px" viewBox="0 0 28 28" version="1.1" xmlns="http://www.w3.org/2000/svg" xmlns:xlink="http://www.w3.org/1999/xlink">
    <!-- Generator: Sketch 53.2 (72643) - https://sketchapp.com -->
    <title>设计@3x</title>
    <desc>Created with Sketch.</desc>
    <g id="Page-1" stroke="none" stroke-width="1" fill="none" fill-rule="evenodd">
        <g id="欢迎-pe" transform="translate(-74.000000, -492.000000)" fill="#FFFFFF" fill-rule="nonzero">
            <g id="方向" transform="translate(74.000000, 344.000000)">
                <g id="设计" transform="translate(0.000000, 148.000000)">
                    <path d="M28,6.79501387 L21.1961027,0 L13.9171788,7.26880966 L6.84925659,0.210686513 L0,7.05071859 L7.06761062,14.1091529 L2.38837354,18.7821191 L0.585029247,26.586014 C0.534195527,26.8020704 0.598705707,27.029023 0.75562508,27.1861856 C0.912544407,27.3433482 1.13961545,27.4084291 1.35610958,27.3582895 L9.19255433,25.577167 L13.872103,20.9042321 L20.9774404,28 L27.8267281,21.1599369 L20.7213907,14.0638577 L28,6.79501387 Z M6.67153363,2.8 L12.1333333,8.26929787 L8.24926018,12.1333333 L7.62355365,11.5067678 L8.86244856,10.2661721 C9.24378513,9.87310567 9.23925907,9.24625011 8.85228657,8.8587464 C8.46531406,8.47124264 7.83931787,8.46671033 7.44679035,8.84857041 L6.20789545,10.0888517 L5.18925115,9.06911731 L6.42814606,7.82852159 C6.81915519,7.43706255 6.81922547,6.8023116 6.42830309,6.41076571 C6.03738072,6.01921983 5.40350001,6.01914945 5.01249093,6.41060849 L3.77359598,7.65120421 L2.8,6.67658609 L6.67153363,2.8 Z M20.6911432,25.2 L19.6516908,24.1627218 L20.9439813,22.8710174 C21.3487358,22.4627433 21.3470684,21.8046397 20.9402499,21.3984162 C20.5334318,20.9921927 19.874365,20.9905276 19.4654931,21.3946903 L18.1722254,22.6863947 L17.109582,21.6253053 L18.4031778,20.3339281 C18.7938613,19.9237206 18.785879,19.2773182 18.3851841,18.8768552 C17.9844891,18.4763927 17.3371472,18.4678508 16.9259946,18.857601 L15.6323988,20.1493054 L14.9333333,19.4499555 L18.9611408,15.4 L24.7333333,21.1640721 L20.6911432,25.2 Z M9.92322427,21.4666667 L6.06666667,17.6114296 L18.0780964,5.6 L21.9333333,9.45523703 L9.92322427,21.4666667 Z M25.2,6.81989686 L23.6198615,8.4 L19.6,4.3797733 L21.1804684,2.8 L25.2,6.81989686 Z M2.8,24.7333333 L4.00985032,19.4767174 L4.35226013,19.1333333 L8.4,23.1905875 L8.05990822,23.5316471 L2.8,24.7333333 Z" id="形状"></path>
                </g>
            </g>
        </g>
    </g>
</svg>