<?xml version="1.0" encoding="UTF-8"?>
<svg width="64px" height="60px" viewBox="0 0 64 60" version="1.1" xmlns="http://www.w3.org/2000/svg" xmlns:xlink="http://www.w3.org/1999/xlink">
    <!-- Generator: Sketch 53.2 (72643) - https://sketchapp.com -->
    <title>形状@1x</title>
    <desc>Created with Sketch.</desc>
    <g id="Page-1" stroke="none" stroke-width="1" fill="none" fill-rule="evenodd">
        <g id="团队" transform="translate(-221.000000, -455.000000)" fill="#FFFFFF" fill-rule="nonzero">
            <g id="运维" transform="translate(161.000000, 393.000000)">
                <path d="M118.979113,93.0772119 L116.740202,90.8383009 L112.931237,94.6472659 C111.248533,93.3447548 109.2138,92.4717203 106.99601,92.1900962 L106.99601,86.8110772 L103.82774,86.8110772 L103.82774,92.1900962 C101.609951,92.4717203 99.5752171,93.3517954 97.8925135,94.6472659 L94.0835485,90.8383009 L91.8446374,93.0772119 L95.6536024,96.886177 C94.3510913,98.5688805 93.4780568,100.603614 93.1964328,102.821403 L87.8103732,102.821403 L87.8103732,105.989674 L93.1893922,105.989674 C93.4710162,108.207463 94.3510913,110.242197 95.6465618,111.9249 L91.8375968,115.733865 L94.0765079,117.972776 L97.8854729,114.163811 C99.5681765,115.466322 101.60291,116.339357 103.820699,116.620981 L103.820699,122 L106.98897,122 L106.98897,116.620981 C109.206759,116.339357 111.241493,115.459282 112.924196,114.163811 L116.733161,117.972776 L118.972072,115.733865 L115.163107,111.9249 C116.465618,110.242197 117.338653,108.207463 117.620277,105.989674 L123.013377,105.989674 L123.013377,102.821403 L117.634358,102.821403 C117.345693,100.603614 116.472659,98.5759211 115.170148,96.886177 L118.979113,93.0772119 Z M114.48721,105.58836 C114.283032,107.186576 113.649378,108.707346 112.663694,109.988735 L111.938512,110.932176 L110.995072,111.657357 C109.713682,112.650082 108.192912,113.276696 106.594696,113.480873 L105.411875,113.635766 L104.229054,113.480873 C102.630838,113.276696 101.110068,112.643042 99.8286787,111.657357 L98.8852382,110.932176 L98.1600563,109.988735 C97.1673316,108.707346 96.5407181,107.186576 96.3365407,105.58836 L96.1816475,104.405539 L96.3365407,103.222718 C96.5407181,101.631542 97.1743722,100.103732 98.1600563,98.8223422 L98.8852382,97.8789017 L99.8286787,97.1537198 C101.110068,96.1609951 102.630838,95.5343816 104.229054,95.3302042 L105.411875,95.175311 L106.594696,95.3302042 C108.192912,95.5343816 109.713682,96.1680357 110.995072,97.1537198 L111.938512,97.8789017 L112.663694,98.8223422 C113.656419,100.103732 114.283032,101.624501 114.48721,103.222718 L114.642103,104.405539 L114.48721,105.58836 L114.48721,105.58836 Z M79.7418446,84.910115 L71.4973011,94.7387937 L79.7418446,104.567472 L77.3128374,106.602206 L67.3574278,94.7387937 L77.319878,82.8753814 L79.7418446,84.910115 Z M123.083783,62 L123.083783,88.0924666 L119.915513,88.0924666 L119.915513,65.1682704 L63.1682704,65.1682704 L63.1682704,118.676836 L85.5644215,118.676836 L85.5644215,121.845107 L60,121.845107 L60,62 L123.083783,62 Z M106.75663,71.7793945 L103.58836,71.7793945 L103.58836,68.6111241 L106.75663,68.6111241 L106.75663,71.7793945 Z M114.501291,71.7793945 L111.33302,71.7793945 L111.33302,68.6111241 L114.501291,68.6111241 L114.501291,71.7793945 Z" id="形状"></path>
            </g>
        </g>
    </g>
</svg>