<?xml version="1.0" encoding="UTF-8"?>
<svg width="52px" height="60px" viewBox="0 0 52 60" version="1.1" xmlns="http://www.w3.org/2000/svg" xmlns:xlink="http://www.w3.org/1999/xlink">
    <!-- Generator: Sketch 53.2 (72643) - https://sketchapp.com -->
    <title>形状@1x</title>
    <desc>Created with Sketch.</desc>
    <g id="Page-1" stroke="none" stroke-width="1" fill="none" fill-rule="evenodd">
        <g id="团队" transform="translate(-328.000000, -354.000000)" fill="#FFFFFF" fill-rule="nonzero">
            <g id="产品" transform="translate(262.000000, 292.000000)">
                <path d="M85.9870861,101.135111 L75.9975833,95.271404 C75.0354487,94.7061622 73.8112012,95.0523722 73.2631499,96.0446856 C72.7150986,97.036999 73.0507793,98.299647 74.0129138,98.8648888 L84.0024167,104.728596 C84.9645513,105.293838 86.1887988,104.947628 86.7368501,103.955314 C87.2849014,102.963001 86.9492207,101.700353 85.9870861,101.135111 L85.9870861,101.135111 Z M108.993056,83.7392576 C109.948291,83.193623 110.282709,81.9727543 109.739999,81.012371 C109.197289,80.0519878 107.982964,79.7157676 107.027729,80.2614022 L91.5000585,89.1470329 L75.9743772,80.2634021 C75.0196911,79.716663 73.8049212,80.0515401 73.2611127,81.011371 C72.7173042,81.971202 73.0503862,83.1925184 74.0050723,83.7392576 L89.7535437,92.7488832 L89.7535437,112.000083 C89.7535437,112.714585 90.1326825,113.374811 90.7481421,113.732062 C91.3636018,114.089313 92.1218793,114.089313 92.737339,113.732062 C93.3527987,113.374811 93.7319374,112.714585 93.7319374,112.000083 L93.7319374,92.6688865 C93.7319374,92.6068891 93.7020995,92.5528913 93.6961319,92.4908939 L108.993056,83.7392576 Z M115.017998,74.5292549 L95.0120002,62.8189439 C93.1467098,61.7270187 90.8372913,61.7270187 88.9720009,62.8189439 L68.9800032,74.5292549 C67.1317929,75.6153176 65.9976954,77.5996605 66.0000035,79.7433933 L66.0000035,104.598053 C66.0000035,106.772111 67.1640034,108.778164 69.0460032,109.848193 L89.0460009,121.218495 C90.8767921,122.260502 93.121209,122.260502 94.9520002,121.218495 L114.951998,109.848193 C116.838128,108.773569 118.001962,106.76888 117.999998,104.598053 L117.999998,79.7433933 C118.001889,77.5992517 116.866977,75.6148149 115.017998,74.5292549 Z M114,105.607738 C114,106.332352 113.612,107.002921 112.984,107.359223 L92.9840004,118.73887 C92.3741206,119.087043 91.6258803,119.087043 91.0160004,118.73887 L71.0160008,107.359223 C70.3872907,107.00072 69.9993459,106.331941 70.0000008,105.607738 L70.0000008,80.7326494 C70.0000008,80.0160419 70.3780008,79.3534802 70.9940008,78.9931747 L90.9860004,67.2732389 C91.6072748,66.9089204 92.376726,66.9089204 92.9980004,67.2732389 L113.006,78.9951764 C113.622,79.3534802 114,80.0160419 114,80.7326494 L114,105.607738 L114,105.607738 Z M107.666333,88.3724341 L98.3336666,93.8802091 C97.0458506,94.6401781 96,96.3141097 96,97.6180565 L96,108.643606 C96,109.947553 97.0438509,110.387535 98.3336666,109.627566 L107.666333,104.119791 C108.954149,103.359822 110,101.68589 110,100.381944 L110,89.3563939 C110,88.0524472 108.956149,87.6124652 107.666333,88.3724341 L107.666333,88.3724341 Z" id="形状"></path>
            </g>
        </g>
    </g>
</svg>