<?xml version="1.0" encoding="UTF-8"?>
<svg width="69px" height="60px" viewBox="0 0 69 60" version="1.1" xmlns="http://www.w3.org/2000/svg" xmlns:xlink="http://www.w3.org/1999/xlink">
    <!-- Generator: Sketch 53.2 (72643) - https://sketchapp.com -->
    <title>合并形状@1x</title>
    <desc>Created with Sketch.</desc>
    <g id="Page-1" stroke="none" stroke-width="1" fill="none" fill-rule="evenodd">
        <g id="团队" transform="translate(-421.000000, -455.000000)" fill="#FFFAFA" fill-rule="nonzero">
            <g id="后台" transform="translate(363.000000, 393.000000)">
                <path d="M119.364335,62 C123.114161,62 126.182417,65.0682567 126.182417,68.818082 L126.182417,106.318332 C126.182417,110.068556 123.174088,113.738479 119.497373,114.473982 L104.591958,117.454745 C104.591958,117.454745 117.421106,122 109.136813,122 L75.0456044,122 C66.7625098,122 79.5904597,117.454745 79.5904597,117.454745 L64.6862428,114.473982 C61.0083298,113.738479 58,110.068556 58,106.318332 L58,68.818082 C58,65.0682567 61.0678573,62 64.818082,62 L119.364335,62 Z M119.364335,105.977547 L119.364335,68.1365135 L64.818082,68.1365135 L64.818082,105.977547 L119.364335,105.977547 Z" id="合并形状"></path>
            </g>
        </g>
    </g>
</svg>