<?xml version="1.0" encoding="UTF-8"?>
<svg width="33px" height="60px" viewBox="0 0 33 60" version="1.1" xmlns="http://www.w3.org/2000/svg" xmlns:xlink="http://www.w3.org/1999/xlink">
    <!-- Generator: Sketch 53.2 (72643) - https://sketchapp.com -->
    <title>形状@1x</title>
    <desc>Created with Sketch.</desc>
    <g id="Page-1" stroke="none" stroke-width="1" fill="none" fill-rule="evenodd">
        <g id="团队" transform="translate(-136.000000, -354.000000)" fill="#FFFFFF" fill-rule="nonzero">
            <g id="移动" transform="translate(60.000000, 292.000000)">
                <path d="M105.559735,122 L78.8621942,122 C77.2813693,122 76,120.610676 76,118.896552 L76.0000001,65.1025095 C76.0000001,63.3883847 77.2813694,62 78.8621942,62 L105.559735,62 C107.138682,62 108.417235,63.3883847 108.417235,65.1025095 L108.417235,118.896552 C108.417235,120.609738 107.138682,122 105.559735,122 Z M92.219413,118.896552 C93.2726704,118.896552 94.1269167,117.970023 94.1269167,116.826648 C94.1269167,115.685149 93.2726705,114.758621 92.219413,114.758621 C91.1642781,114.758621 90.3109707,115.685149 90.3109707,116.826648 C90.3109707,117.970023 91.1652169,118.896552 92.219413,118.896552 Z M105.559735,68.205019 L104.606922,68.205019 L79.8168847,68.205019 L78.8621942,68.205019 L78.8621942,111.656111 L79.8168847,111.656111 L104.60786,111.656111 L105.560673,111.656111 L105.560673,68.205019 L105.559735,68.205019 Z" id="形状"></path>
            </g>
        </g>
    </g>
</svg>