<svg xmlns="http://www.w3.org/2000/svg" viewBox="0 0 283.26 346.87"><defs><style>.cls-1{fill:#ef7f43;}.cls-2{fill:#3a4956;}.cls-3{fill:#e6e7e8;}.cls-4{fill:#f8c29e;}.cls-5{fill:#b2c1bc;}.cls-6{fill:#fff;}</style></defs><title>资源 2</title><g id="图层_2" data-name="图层 2"><g id="logo2"><g id="leftside"><g id="S_left"><path class="cls-1" d="M146.14,346.86l-.29-54.55-30.8-30.8H59.92a52.87,52.87,0,0,1-7.38.53c-.54,0-1.07-.06-1.6-.08l78.27,78.28A22.78,22.78,0,0,0,146.14,346.86Z"/><path class="cls-2" d="M84,101.82a48.68,48.68,0,0,1,11.4,1.39l48.94-48.94.28.29L144.33,0A22.82,22.82,0,0,0,127.4,6.63L31.77,102.27a22.88,22.88,0,0,0-1,31.16,22.87,22.87,0,0,0,1.73,2l4.19,4.19A48.53,48.53,0,0,1,84,101.82Z"/></g><g id="cloud_left"><path class="cls-3" d="M145.1,183.44V88.05a60.05,60.05,0,0,0-30.38,24.74,48.47,48.47,0,0,0-19.33-9.58L80.13,118.47Z"/><path class="cls-3" d="M33.58,212.32a22.89,22.89,0,0,1,32.28,0l49.19,49.19H145.1V237.63a22.72,22.72,0,0,1-17-6.6L36.68,139.58a47.75,47.75,0,0,0-.37,20A52.49,52.49,0,0,0,50.94,262L33.58,244.6A22.89,22.89,0,0,1,33.58,212.32Z"/></g><g id="shading_left"><path class="cls-4" d="M59.92,261.51h55.13L65.86,212.32A22.83,22.83,0,1,0,33.58,244.6L50.94,262c.53,0,1.06.08,1.6.08A52.87,52.87,0,0,0,59.92,261.51Z"/><path class="cls-5" d="M145.29,183.62l-.19-.18-65-65,15.26-15.26a48.38,48.38,0,0,0-58.71,36.37L128.13,231a22.72,22.72,0,0,0,17,6.6h.47Zm-25.57-.37L120,183l.21.24Z"/></g></g><path id="cloud_right" class="cls-6" d="M225.57,142.06a59.91,59.91,0,0,0-80.16-54.14l-.31.13V261.51h71.75a57.88,57.88,0,0,0,6.49.36,59.93,59.93,0,0,0,2.23-119.81Z"/><path id="shading_right" class="cls-5" d="M159.41,198.3,144.29,183l.28,54.61A22.52,22.52,0,0,0,159.41,231,23.34,23.34,0,0,0,159.41,198.3Z"/><g id="S_right"><path class="cls-2" d="M224.6,134.55a22.83,22.83,0,1,0,32.29-32.28L161.25,6.63A22.78,22.78,0,0,0,144.33,0l.28,54.55Z"/><path class="cls-2" d="M259.71,213.44a22.8,22.8,0,0,0-1.74-2l-95.63-95.64a22.83,22.83,0,0,0-32.28,32.29l15.12,15.12,65.15,65.15-64.19,64.2-.29-.29.29,54.55a22.76,22.76,0,0,0,16.92-6.62L258.7,244.6A22.9,22.9,0,0,0,259.71,213.44Z"/></g></g></g></svg>