<?xml version="1.0" encoding="UTF-8"?>
<svg width="60px" height="60px" viewBox="0 0 60 60" version="1.1" xmlns="http://www.w3.org/2000/svg" xmlns:xlink="http://www.w3.org/1999/xlink">
    <!-- Generator: Sketch 53.2 (72643) - https://sketchapp.com -->
    <title>分组@1x</title>
    <desc>Created with Sketch.</desc>
    <g id="Page-1" stroke="none" stroke-width="1" fill="none" fill-rule="evenodd">
        <g id="团队" transform="translate(-526.000000, -354.000000)" fill="#FFFFFF" fill-rule="nonzero">
            <g id="前端" transform="translate(464.000000, 292.000000)">
                <g transform="translate(62.000000, 62.000000)" id="分组">
                    <g>
                        <polygon id="路径" points="6.36 18.36 53.76 18.36 53.76 53.76 6.36 53.76"></polygon>
                        <path d="M55.2,12 C57.84,12 60,14.16 60,16.8 L60,55.2 C60,57.84 57.84,60 55.2,60 L4.8,60 C2.16,60 7.10542736e-15,57.84 7.10542736e-15,55.2 L7.10542736e-15,16.8 C7.10542736e-15,14.16 2.16,12 4.8,12 L55.2,12 Z M56.4,54 L56.4,18 C56.4,16.68 55.32,15.6 54,15.6 L6,15.6 C4.68,15.6 3.6,16.68 3.6,18 L3.6,54 C3.6,55.32 4.68,56.4 6,56.4 L54,56.4 C55.32,56.4 56.4,55.32 56.4,54 Z" id="合并形状"></path>
                        <path d="M58.2,0 L1.8,0 C0.84,0 0,0.84 0,1.8 L0,7.8 C0,8.76 0.84,9.6 1.8,9.6 L58.2,9.6 C59.16,9.6 60,8.76 60,7.8 L60,1.8 C60,0.84 59.16,0 58.2,0 Z" id="路径"></path>
                    </g>
                </g>
            </g>
        </g>
    </g>
</svg>