<?xml version="1.0" encoding="UTF-8"?>
<svg width="60px" height="60px" viewBox="0 0 60 60" version="1.1" xmlns="http://www.w3.org/2000/svg" xmlns:xlink="http://www.w3.org/1999/xlink">
    <!-- Generator: Sketch 53.2 (72643) - https://sketchapp.com -->
    <title>形状@1x</title>
    <desc>Created with Sketch.</desc>
    <g id="Page-1" stroke="none" stroke-width="1" fill="none" fill-rule="evenodd">
        <g id="团队" transform="translate(-425.000000, -253.000000)" fill="#FFFFFF" fill-rule="nonzero">
            <g id="选中" transform="translate(363.000000, 191.000000)">
                <path d="M122,76.560744 L107.42022,62 L91.8225259,77.5760207 L76.6769784,62.4514711 L62,77.1086827 L77.1448799,92.233899 L67.1179433,102.247398 L63.2536341,118.97003 C63.1447047,119.433008 63.2829408,119.919335 63.6191966,120.256112 C63.9554523,120.592889 64.4420331,120.732348 64.9059491,120.624906 L81.6983307,116.808215 L91.7259349,106.794783 L106.951658,122 L121.628703,107.342722 L106.40298,92.136838 L122,76.560744 Z M76.2961435,68 L88,79.719924 L79.6769861,88 L78.3361864,86.6573596 L80.9909612,83.9989402 C81.808111,83.156655 81.7984123,81.8133931 80.9691855,80.983028 C80.1399587,80.1526628 78.7985383,80.1429507 77.9574079,80.9612223 L75.3026331,83.6189679 L73.1198239,81.4338228 L75.7745987,78.7754034 C76.6124754,77.9365626 76.612626,76.576382 75.7749352,75.7373551 C74.9372444,74.8983282 73.5789286,74.8981774 72.741052,75.7370182 L70.0862771,78.3954376 L68,76.3069702 L76.2961435,68 Z M106.338164,116 L104.110766,113.777261 L106.87996,111.009323 C107.747291,110.13445 107.743718,108.724228 106.871964,107.853749 C106.000211,106.98327 104.587925,106.979702 103.711771,107.845765 L100.940483,110.613703 L98.6633901,108.33994 L101.435381,105.572703 C102.27256,104.693687 102.255455,103.308539 101.396823,102.450404 C100.538191,101.59227 99.1510297,101.573966 98.2699884,102.409145 L95.4979974,105.177083 L94,103.678476 L102.631016,95 L115,107.351583 L106.338164,116 Z M83.264052,108 L75,99.7387778 L100.738778,74 L109,82.2612222 L83.264052,108 Z M116,76.6140647 L112.613989,80 L104,71.3852285 L107.386718,68 L116,76.6140647 Z M68,115 L70.5925364,103.735823 L71.3262717,103 L80,111.694116 L79.2712319,112.424958 L68,115 Z" id="形状"></path>
            </g>
        </g>
    </g>
</svg>