<?xml version="1.0" encoding="UTF-8"?>
<svg width="63px" height="60px" viewBox="0 0 63 60" version="1.1" xmlns="http://www.w3.org/2000/svg" xmlns:xlink="http://www.w3.org/1999/xlink">
    <!-- Generator: Sketch 53.2 (72643) - https://sketchapp.com -->
    <title>分组 3@1x</title>
    <desc>Created with Sketch.</desc>
    <g id="Page-1" stroke="none" stroke-width="1" fill="none" fill-rule="evenodd">
        <g id="团队" transform="translate(-221.000000, -253.000000)" fill="#FFFFFF" fill-rule="nonzero">
            <g id="运营" transform="translate(161.000000, 191.000000)">
                <g id="分组-3" transform="translate(60.000000, 62.000000)">
                    <path d="M42.6882367,11.3763392 C42.6895833,15.979291 39.9226686,20.1297566 35.6778442,21.8921648 C31.4330198,23.654573 26.5463467,22.6817997 23.2967267,19.4274982 C20.0471067,16.1731966 19.0745852,11.2783343 20.8326981,7.02563205 C22.5908109,2.77292979 26.7332799,1.97668516e-07 31.3282632,0 C37.6007512,0.00036787816 42.6860309,5.0929737 42.6882367,11.3763392 L42.6882367,11.3763392 Z M37.007917,11.3763392 C37.007917,8.23411313 34.4650494,5.68683561 31.3282632,5.68683561 C28.191477,5.68683561 25.6486094,8.23411313 25.6486094,11.3763392 C25.6486094,14.5185653 28.191477,17.0658428 31.3282632,17.0658428 C34.4636802,17.0625341 37.0046141,14.5171938 37.007917,11.3763392 L37.007917,11.3763392 Z M5.97290356,35.6597809 C11.4063242,32.5174936 18.353898,34.3824321 21.4907896,39.82525 C24.6276812,45.2680678 22.7660278,52.2277054 17.3326582,55.3700814 C11.8992886,58.5124573 4.95168453,56.6476321 1.81470448,51.2048654 C0.308240831,48.5910999 -0.0999867718,45.4849033 0.679829744,42.5696235 C1.45964626,39.6543438 3.36362629,37.1687933 5.97290356,35.6597809 L5.97290356,35.6597809 Z M8.81273047,40.5875714 C6.82326455,41.7381596 5.72160172,43.9759655 6.02145342,46.257488 C6.32130512,48.5390104 7.9636196,50.4149341 10.1825765,51.0105055 C12.4015335,51.6060768 14.7601391,50.8040061 16.1585626,48.9783033 C17.5569861,47.1526004 17.7198267,44.6628132 16.5711509,42.669943 C15.0002998,39.9519789 11.5297208,39.0204703 8.81273047,40.5875714 L8.81273047,40.5875714 Z M45.3243152,55.3696087 C41.3441575,53.069114 39.1395302,48.5931935 39.738634,44.0293405 C40.3377378,39.4654876 43.622563,35.7126773 48.0611228,34.5211567 C52.4996826,33.3296361 57.2176819,34.9341076 60.0147259,38.5862729 C62.8117698,42.2384381 63.1369045,47.2189039 60.8384927,51.2048654 C57.7014556,56.6451912 50.7567195,58.5094887 45.3243152,55.3696087 L45.3243152,55.3696087 Z M48.1641421,50.4424853 C50.8806442,52.01348 54.3541395,51.0811192 55.9225233,48.3599691 C57.4909072,45.6388189 56.5602997,42.1592624 53.8439233,40.5880496 C51.1275469,39.0168369 47.653977,39.9489188 46.0853755,42.669943 C44.5209281,45.3918458 45.4507992,48.8686493 48.1641421,50.4424853 L48.1641421,50.4424853 Z" id="形状"></path>
                    <path d="M45.3187733,17.6706066 C44.5535065,18.7663427 44.5984833,20.2177768 45.485452,21.2169284 C49.4599691,25.621424 51.216373,31.6144269 50.2536532,37.4864457 C52.1182058,37.6090083 53.9814354,38.1052535 55.7110576,39.1004084 C57.1855159,31.2899349 54.9403046,23.2349728 49.6451437,17.3382221 C48.4750857,16.0286676 46.3519167,16.1778742 45.3518445,17.6233134 C45.3412617,17.6392998 45.3300175,17.6552862 45.3187733,17.6706066 L45.3187733,17.6706066 Z M12.0134601,28.2076585 C13.8790508,22.5669184 18.1427393,18.0562605 23.6452518,15.9021084 C22.8211182,14.2175389 22.3171136,12.3477933 22.3071923,10.3448276 C14.8582866,13.0047516 9.06258648,19.0039319 6.62682801,26.575711 C6.0976893,28.2236449 7.28296001,29.964833 8.99736943,30.1060464 L9.05425185,30.1107091 C10.3724687,30.2299412 11.5974248,29.4732505 12.0134601,28.2076585 L12.0134601,28.2076585 Z M37.9075243,55.5204646 C37.3439916,54.3001675 36.0687673,53.6187462 34.7617946,53.8965103 C33.4473896,54.176403 32.1076188,54.3177121 30.7641517,54.3181522 C26.2586242,54.3199068 21.8894267,52.7618821 18.3889201,49.905233 C17.3518082,51.467906 15.9952289,52.8420724 14.2761895,53.8525476 C18.864449,57.8229716 24.7147099,60.0042092 30.7641517,59.9999939 C32.4957659,59.999522 34.2226074,59.8171334 35.9166399,59.4557894 C37.668089,59.0827728 38.6946181,57.2037018 37.9300127,55.5724205 C37.9214142,55.5551018 37.9134771,55.5377832 37.9075243,55.5204646 Z" id="形状"></path>
                </g>
            </g>
        </g>
    </g>
</svg>