<?xml version="1.0" encoding="UTF-8"?>
<svg width="72px" height="72px" viewBox="0 0 72 72" version="1.1" xmlns="http://www.w3.org/2000/svg" xmlns:xlink="http://www.w3.org/1999/xlink">
    <!-- Generator: Sketch 53.2 (72643) - https://sketchapp.com -->
    <title>头像@3x</title>
    <desc>Created with Sketch.</desc>
    <defs>
        <filter x="-16.7%" y="-16.7%" width="133.3%" height="133.3%" filterUnits="objectBoundingBox" id="filter-1">
            <feOffset dx="0" dy="0" in="SourceAlpha" result="shadowOffsetOuter1"></feOffset>
            <feGaussianBlur stdDeviation="2" in="shadowOffsetOuter1" result="shadowBlurOuter1"></feGaussianBlur>
            <feColorMatrix values="0 0 0 0 0.162392437   0 0 0 0 0.162392437   0 0 0 0 0.162392437  0 0 0 0.5 0" type="matrix" in="shadowBlurOuter1" result="shadowMatrixOuter1"></feColorMatrix>
            <feMerge>
                <feMergeNode in="shadowMatrixOuter1"></feMergeNode>
                <feMergeNode in="SourceGraphic"></feMergeNode>
            </feMerge>
        </filter>
        <linearGradient x1="0%" y1="0%" x2="100%" y2="100%" id="linearGradient-2">
            <stop stop-color="#B37FEB" offset="0%"></stop>
            <stop stop-color="#85A4F8" offset="100%"></stop>
        </linearGradient>
        <linearGradient x1="0%" y1="50%" x2="100%" y2="50%" id="linearGradient-3">
            <stop stop-color="#85A4F8" offset="0%"></stop>
            <stop stop-color="#B37FEB" offset="100%"></stop>
        </linearGradient>
        <circle id="path-4" cx="30" cy="30" r="30"></circle>
    </defs>
    <g id="Page-1" stroke="none" stroke-width="1" fill="none" fill-rule="evenodd">
        <g id="个人中心未认证" transform="translate(-144.000000, -121.000000)">
            <g id="个人" transform="translate(150.000000, 127.000000)">
                <g id="头像" filter="url(#filter-1)">
                    <circle id="椭圆形" fill="url(#linearGradient-2)" cx="30" cy="30" r="30"></circle>
                    <circle id="椭圆形" fill-opacity="0.4" fill="#222222" cx="30" cy="30" r="30"></circle>
                    <circle id="椭圆形-copy" stroke="url(#linearGradient-3)" stroke-width="2" cx="30" cy="30" r="31"></circle>
                    <g id="分组-3">
                        <mask id="mask-5" fill="white">
                            <use xlink:href="#path-4"></use>
                        </mask>
                        <use id="Mask" fill-opacity="0.4" fill="#222222" xlink:href="#path-4"></use>
                        <g opacity="0.8" mask="url(#mask-5)" fill="#D3ADF7" fill-opacity="0.8">
                            <g transform="translate(0.000000, 6.000000)">
                                <polygon id="路径-2" points="18 36 24 24 18 12 12 24"></polygon>
                                <polygon id="路径-2-copy-7" points="6 36 12 24 6 12 -7.10542736e-15 24"></polygon>
                                <polygon id="路径-2-copy" points="24 24 30 12 24 0 18 12"></polygon>
                                <polygon id="路径-2-copy-6" points="24 48 30 36 24 24 18 36"></polygon>
                                <polygon id="路径-2-copy-2" points="36 24 42 12 36 0 30 12"></polygon>
                                <polygon id="路径-2-copy-3" points="42 36 48 24 42 12 36 24"></polygon>
                                <polygon id="路径-2-copy-4" points="36 48 42 36 36 24 30 36"></polygon>
                                <polygon id="路径-2-copy-5" points="54 36 60 24 54 12 48 24"></polygon>
                            </g>
                        </g>
                    </g>
                </g>
            </g>
        </g>
    </g>
</svg>