<?xml version="1.0" encoding="UTF-8"?>
<svg width="26px" height="30px" viewBox="0 0 26 30" version="1.1" xmlns="http://www.w3.org/2000/svg" xmlns:xlink="http://www.w3.org/1999/xlink">
    <!-- Generator: Sketch 53.2 (72643) - https://sketchapp.com -->
    <title>IOS@3x</title>
    <desc>Created with Sketch.</desc>
    <g id="Page-1" stroke="none" stroke-width="1" fill="none" fill-rule="evenodd">
        <g id="欢迎-pe" transform="translate(-208.000000, -346.000000)" fill="#FFFFFF" fill-rule="nonzero">
            <g id="方向" transform="translate(74.000000, 344.000000)">
                <path d="M150.790197,4.14542002 C150.713042,5.02147022 150.236047,5.73057894 150.000485,6.03250747 C149.549709,6.61089659 148.871291,7.03681928 148.2081,7.18153605 C148.270336,6.30108185 148.827627,5.55104004 149.023792,5.31264487 C149.457396,4.78881045 150.136121,4.35073414 150.790197,4.14542002 L150.790197,4.14542002 Z M152.554143,10.978004 C153.897664,10.978004 154.861145,11.2772697 155.992489,12.3552542 C154.18522,13.7360891 153.441699,16.1675287 153.605875,18.5022856 C153.775411,20.925088 155.013987,23.4348775 157.079111,24.551815 C156.665035,25.4343176 156.463954,25.7811053 155.847226,26.7164555 C154.772792,28.3577737 153.558558,30.0283835 152.028534,30.0439852 L152.001803,30.0439852 C151.388626,30.0439852 150.996774,29.8640025 150.454368,29.615741 C149.754647,29.2949334 148.88266,28.895298 147.414496,28.895298 L147.369979,28.895298 C145.89311,28.9041401 145.005862,29.2991325 144.292861,29.6169017 C143.734751,29.8657094 143.331292,30.0456238 142.711185,30.0456238 L142.673256,30.0456238 C141.099431,30.0337433 139.735086,28.2605448 138.722068,26.7165921 C135.517304,21.8366773 135.52239,16.5285183 137.15374,14.0128569 C138.372242,12.1416783 140.278994,10.97995 142.129382,10.97995 C143.0916,10.97995 143.872606,11.2582882 144.700076,11.5530475 C145.516928,11.8438124 146.361604,12.145024 147.350144,12.145024 C148.287952,12.145024 149.042978,11.8595848 149.77298,11.5836704 C150.560063,11.2859411 151.375038,10.978004 152.554212,10.978004 L152.554143,10.978004 Z M152.554348,2.00003413 C150.944643,2.10910939 149.066466,3.13482658 147.966291,4.46496446 C146.96867,5.67756053 146.144922,7.47332519 146.468085,9.21835879 C146.510691,9.2198609 146.552375,9.22027059 146.594503,9.22027059 C148.308026,9.22027059 150.062926,8.19144671 151.092706,6.8702192 C152.079879,5.60566302 152.826371,3.82410033 152.554382,2 L152.554348,2.00003413 Z M153.149875,9.023423 C150.438117,9.023423 149.295029,10.3100673 147.41255,10.3100673 C145.477531,10.3100673 144.003121,9.02557377 141.656961,9.02557377 C139.353851,9.02557377 136.908653,10.4234442 135.352581,12.813541 C133.172988,16.1748345 133.54241,22.4967619 137.083481,27.8888013 C138.346262,29.8138517 140.039848,31.9827596 142.249518,32 C142.266246,32 142.28236,32 142.298576,32 C144.227416,32 144.794232,30.7473926 147.440374,30.7315861 C147.455225,30.7315861 147.469017,30.7315861 147.483731,30.7315861 C150.096109,30.7315861 150.615984,31.9979517 152.541102,31.9979517 C152.553529,31.9979517 152.565887,31.9979517 152.579236,31.9979517 C154.79075,31.97501 156.57559,29.5757979 157.836459,27.649655 C158.746785,26.2700151 159.084833,25.5717968 159.79063,24.0094771 C154.671911,22.0750042 153.846114,14.8429555 158.913317,12.06565 C157.368681,10.1380391 155.198613,9.02338887 153.14991,9.02338887 L153.149875,9.023423 L153.149875,9.023423 Z" id="IOS"></path>
            </g>
        </g>
    </g>
</svg>