<?xml version="1.0" encoding="UTF-8"?>
<svg width="82px" height="82px" viewBox="0 0 82 82" version="1.1" xmlns="http://www.w3.org/2000/svg" xmlns:xlink="http://www.w3.org/1999/xlink">
    <!-- Generator: Sketch 53.2 (72643) - https://sketchapp.com -->
    <title>分组 6@3x</title>
    <desc>Created with Sketch.</desc>
    <g id="Page-1" stroke="none" stroke-width="1" fill="none" fill-rule="evenodd">
        <g id="阅卷修改" transform="translate(-642.000000, -460.000000)" fill-rule="nonzero">
            <g id="删除弹框" transform="translate(479.000000, 399.000000)">
                <g id="分组-3" transform="translate(164.000000, 62.000000)">
                    <g id="分组-6" transform="translate(-0.000000, 0.000000)">
                        <path d="M40,80.0000001 C17.95,80.0000001 -1.98951966e-13,62.05 -1.98951966e-13,40 C-1.98951966e-13,17.95 17.95,2.84217094e-14 40,2.84217094e-14 C62.05,2.84217094e-14 80.0000001,17.95 80.0000001,40 C80.0000001,62.05 62.05,80.0000001 40,80.0000001 Z" id="路径" stroke="#E34739" fill="#E34739"></path>
                        <g id="分组-2" transform="translate(23.000000, 23.000000)" fill="#FFFFFF">
                            <polygon id="路径" points="11 1 24 1 24 4 11 4"></polygon>
                            <path d="M23.3636364,5.66666665 L10.6363636,5.66666665 C9.9363636,5.66666665 9.36363635,5.09999997 9.36363635,4.40740741 L9.36363635,1.25925925 C9.36363635,0.566666645 9.93636364,0 10.6363636,0 L23.3636364,0 C24.0636364,0 24.6363637,0.566666685 24.6363637,1.25925925 L24.6363637,4.40740741 C24.6363637,5.10000001 24.0636364,5.66666665 23.3636364,5.66666665 L23.3636364,5.66666665 Z M11.9090909,3.14814816 L22.0909091,3.14814816 L22.0909091,2.51851849 L11.9090909,2.51851849 L11.9090909,3.14814816 Z M29.7272727,34 L4.27272726,34 C3.57272725,34 3,33.4333333 3,32.7407408 L3,10.7037037 C3,10.0111111 3.57272729,9.44444444 4.27272726,9.44444444 L29.7272727,9.44444444 C30.4272727,9.44444444 31,10.0111111 31,10.7037037 L31,32.7407408 C31,33.4333334 30.4272727,34 29.7272727,34 L29.7272727,34 Z M5.54545452,31.4814815 L28.4545455,31.4814815 L28.4545455,11.962963 L5.54545452,11.962963 L5.54545452,31.4814815 Z" id="形状"></path>
                            <path d="M17.5,29 C16.8125,29 16.25,28.4375 16.25,27.75 L16.25,15.25 C16.25,14.5625 16.8125,14 17.5,14 C18.1875,14 18.75,14.5625 18.75,15.25 L18.75,27.75 C18.75,28.4375 18.1875,29 17.5,29 Z M23.75,29 C23.0625,29 22.5,28.4375 22.5,27.75 L22.5,15.25 C22.5,14.5625 23.0625,14 23.75,14 C24.4375,14 25,14.5625 25,15.25 L25,27.75 C25,28.4375 24.4375,29 23.75,29 Z M11.25,29 C10.5625,29 10,28.4375 10,27.75 L10,15.25 C10,14.5625 10.5625,14 11.25,14 C11.9375,14 12.5,14.5625 12.5,15.25 L12.5,27.75 C12.5,28.4375 11.9375,29 11.25,29 Z" id="形状"></path>
                            <polygon id="路径" points="1 5 33 5 33 11 1 11"></polygon>
                            <path d="M32.7407408,12 L1.25925925,12 C0.566666645,12 4.54747351e-13,11.4214286 4.54747351e-13,10.7142857 L4.54747351e-13,4.28571427 C4.54747351e-13,3.57857141 0.566666685,3 1.25925925,3 L32.7407408,3 C33.4333334,3 34,3.57857145 34,4.28571427 L34,10.7142857 C34,11.4214286 33.4333333,12 32.7407408,12 L32.7407408,12 Z M2.51851849,9.42857141 L31.4814815,9.42857141 L31.4814815,5.57142855 L2.51851849,5.57142855 L2.51851849,9.42857141 Z" id="形状"></path>
                        </g>
                    </g>
                </g>
            </g>
        </g>
    </g>
</svg>